<?xml version="1.0" encoding="UTF-8" standalone="no"?>
<!DOCTYPE svg PUBLIC "-//W3C//DTD SVG 1.1//EN" "http://www.w3.org/Graphics/SVG/1.1/DTD/svg11.dtd">
<svg width="100%" height="100%" viewBox="0 0 1800 1800" version="1.1" xmlns="http://www.w3.org/2000/svg" xmlns:xlink="http://www.w3.org/1999/xlink" xml:space="preserve" xmlns:serif="http://www.serif.com/" style="fill-rule:evenodd;clip-rule:evenodd;stroke-linejoin:round;stroke-miterlimit:2;">
    <g id="edit" transform="matrix(1.757812,0,0,1.757812,18,-88)">
        <g transform="matrix(0.710516,0.463524,-0.463524,0.710516,205.152938,73.055314)">
            <g transform="matrix(0.885441,-0.464752,0.464752,0.885441,-175.696304,139.605659)">
                <path d="M289.604,121.811C347.996,101.301 350.101,100.898 350.33,103.531C351.251,114.133 357.908,190.788 393.704,229.289C399.425,235.443 501.556,247.362 516.224,336.548C517.962,347.111 514.186,346.722 465.273,391.243C450.72,404.488 449.181,437.962 415.157,503.277C413.278,506.886 406.545,487.056 380.208,465.892C375.854,462.393 376.545,466.636 373.088,471.159C330.238,527.217 280.274,539.914 279.648,539.331C266.325,526.922 272.785,512.812 179.937,443.053C177.503,441.225 204.25,425.418 205.438,423.464C207.385,420.263 204.253,421.773 198.462,420.71C189.724,419.106 132.535,408.611 95.913,378.092C94.222,376.683 95.415,376.17 111.837,308.584C130.525,231.673 130.615,229.539 132.385,230.78C174.455,260.277 180.903,259.93 178.39,256.542C174.941,251.891 139.131,203.613 143.059,193.369C144.855,188.685 258.915,91.956 260.678,90.961C262.382,89.999 267.961,108.035 273.906,119.272C278.626,128.192 281.086,124.804 289.604,121.811Z" style="fill:rgb(38,60,73);"/>
            </g>
            <g transform="matrix(0.885441,-0.464752,0.464752,0.885441,-175.696304,139.605659)">
                <path d="M493.213,306.669C504.369,328.225 507.032,336.416 499.659,342.694C468.719,369.036 419.516,417.357 417.561,415.45C416.93,414.835 413.672,400.742 400.082,381.83C348.985,310.725 233.909,351.092 162.148,207.682C160.755,204.898 156.45,197.734 158.684,195.699C160.21,194.309 254.022,112.121 255.545,112.276C257.07,112.431 286.42,185.576 352.777,225.046C410.074,259.127 451.767,241.024 493.213,306.669Z" style="fill:rgb(171,193,138);"/>
            </g>
            <g transform="matrix(0.885441,-0.464752,0.464752,0.885441,-175.696304,139.605659)">
                <path d="M175.499,211.501C172.068,203.714 167.235,202.448 173.872,196.958C207.735,168.951 252.59,126.774 254.254,129.688C311.394,229.719 350.365,235.623 431.437,264.659C473.508,279.727 494.185,324.722 493.655,332.509C493.516,334.552 427.921,392.857 422.121,398.012C418.19,401.506 418.867,396.964 412.03,385.798C354.722,292.195 255.408,354.84 175.499,211.501Z" style="fill:rgb(71,118,65);"/>
            </g>
            <g transform="matrix(0.885441,-0.464752,0.464752,0.885441,-175.696304,139.605659)">
                <path d="M210.869,291.284C215.587,295.513 225.396,302.769 225.598,305.065C180.407,297.162 181.307,291.644 177.549,292.908C167.721,296.215 170.738,305.194 148.504,304.578C146.154,304.513 138.105,343.412 138.794,344.318C144.292,351.545 153.197,346.779 156.719,374.457C157.451,380.214 217.474,394.056 245.554,392.624C248.42,392.478 241.081,388.173 237.27,378.585C223.993,345.175 251.084,325.124 253.789,321.283C258.642,322.955 257.909,324.78 313.545,344.647C316.58,390.395 289.668,391.068 291.853,395.602C292.708,397.377 330.417,399.185 377.264,426.872C386.969,432.608 387.136,423.802 398.502,424.442C403.851,424.744 403.401,425.748 408.589,427.51C411.267,435.214 411.776,440.231 417.784,434.788C419.237,433.472 419.286,433.821 420.907,432.777C409.949,462.08 408.804,463.789 406.883,462.043C301.365,366.151 227.915,435.681 123.492,370.512C122.02,369.593 121.984,368.997 133.498,317.499C144.103,270.068 143.791,266.819 147.473,268.558C152.345,270.858 197.816,292.33 210.869,291.284Z" style="fill:rgb(71,118,65);"/>
            </g>
            <g transform="matrix(0.885441,-0.464752,0.464752,0.885441,-175.696304,139.605659)">
                <path d="M296.637,205.349C333.017,240.545 341.358,236.236 338.305,239.261C336.744,240.809 335.011,234.585 311.585,245.667C280.871,260.197 283.993,291.917 284.445,296.505C284.888,301.015 254.109,283.61 236.874,270.001C214.657,252.459 197.872,229.688 199.686,226.606C217.332,196.616 198.249,190.584 202.852,186.911C223.154,170.708 230.551,161.827 232.385,163.65C239.589,170.812 249.23,182.771 267.29,174.029C270.381,172.533 268.739,176.444 296.637,205.349Z" style="fill:rgb(171,193,138);"/>
            </g>
            <g transform="matrix(0.885441,-0.464752,0.464752,0.885441,-175.696304,139.605659)">
                <path d="M461.21,317.466C460.538,339.486 470.399,339.641 466.115,344.098C464.06,346.238 443.34,367.8 438.593,368.956C437.697,369.175 428.933,354.038 414.429,357.175C406.927,358.797 406.604,360.061 404.881,358.174C360.886,309.999 301.205,318.036 331.571,313.818C348.2,311.508 376.379,289.871 373.579,262.493C373.078,257.586 371.839,254.492 376.619,256.207C422.418,272.635 438.097,269.537 467.279,300.655C468.257,301.698 465.512,301.252 461.21,317.466Z" style="fill:rgb(171,193,138);"/>
            </g>
            <g transform="matrix(0.885441,-0.464752,0.464752,0.885441,-175.696304,139.605659)">
                <path d="M225.598,305.065C235.511,308.428 234.93,309.472 253.789,321.283C251.084,325.124 223.993,345.175 237.27,378.585C241.081,388.173 248.42,392.478 245.554,392.624C217.474,394.056 157.451,380.214 156.719,374.457C153.197,346.779 144.292,351.545 138.794,344.318C138.105,343.412 146.154,304.513 148.504,304.578C170.738,305.194 167.721,296.215 177.549,292.908C181.307,291.644 180.407,297.162 225.598,305.065Z" style="fill:rgb(171,193,138);"/>
            </g>
            <g transform="matrix(0.885441,-0.464752,0.464752,0.885441,-175.696304,139.605659)">
                <path d="M210.869,291.284C197.816,292.33 152.345,270.858 147.473,268.558C143.791,266.819 144.103,270.068 133.498,317.499C121.984,368.997 122.02,369.593 123.492,370.512C227.915,435.681 301.365,366.151 406.883,462.043C408.804,463.789 409.949,462.08 420.907,432.777C429.589,422.084 431.062,423.04 436.223,417.03C448.457,402.781 415.252,475.308 413.01,480.203C411.296,483.949 402.489,469.956 392.114,460.889C303.953,383.843 221.587,437.943 126.757,383.078C110.464,373.651 109.329,372.636 110.884,365.595C112.872,356.596 127.278,291.384 137.801,253.592C139.219,248.498 155.728,263.627 182.693,274.072C195.637,279.086 196.586,277.733 210.869,291.284Z" style="fill:rgb(171,193,138);"/>
            </g>
            <g transform="matrix(0.885441,-0.464752,0.464752,0.885441,-175.696304,139.605659)">
                <path d="M313.545,344.647C317.967,345.136 341.538,353.295 348.743,357.321C347.643,358.981 347.965,359.051 346.581,360.583C336.916,371.287 346.294,388.089 359.477,388.858C373.312,389.665 377.912,377.498 378.404,376.791C397.019,393.01 405.228,418.272 408.589,427.51C403.401,425.748 403.851,424.744 398.502,424.442C387.136,423.802 386.969,432.608 377.264,426.872C330.417,399.185 292.708,397.377 291.853,395.602C289.668,391.068 316.58,390.395 313.545,344.647Z" style="fill:rgb(171,193,138);"/>
            </g>
            <g transform="matrix(0.885441,-0.464752,0.464752,0.885441,-175.696304,139.605659)">
                <path d="M252.545,424.826C289.512,426.76 289.276,428.56 289.386,428.604C286.787,446.079 313.706,463.02 324.499,436.498C330.093,436.767 329.796,437.734 350.142,446.931C345.936,457.7 331.96,471.23 330.066,473.063C318.948,483.826 317.926,484.552 311.56,481.374C290.302,470.759 284.336,488.622 273.886,479.07C249.508,456.788 248.875,454.069 254.215,445.319C259.795,436.176 253.231,428.357 252.545,424.826Z" style="fill:rgb(171,193,138);"/>
            </g>
            <g transform="matrix(0.885441,-0.464752,0.464752,0.885441,-175.696304,139.605659)">
                <path d="M236.561,424.354C241.927,424.126 241.775,424.331 252.545,424.826C253.231,428.357 259.795,436.176 254.215,445.319C248.875,454.069 249.508,456.788 273.886,479.07C284.336,488.622 290.302,470.759 311.56,481.374C317.926,484.552 318.948,483.826 330.066,473.063C331.96,471.23 345.936,457.7 350.142,446.931C354.281,448.315 356.868,449.581 360.475,452.632C352.391,460.967 336.78,487.541 295.237,509.034C285.313,514.168 287.568,502.373 241.103,461.988C228.315,450.873 216.367,442.681 219.874,439.943C225.002,435.941 236.123,428.402 236.561,424.354Z" style="fill:rgb(71,118,65);"/>
            </g>
            <g transform="matrix(0.885441,-0.464752,0.464752,0.885441,-175.696304,139.605659)">
                <path d="M236.561,424.354C236.123,428.402 225.002,435.941 219.874,439.943C216.367,442.681 228.315,450.873 241.103,461.988C287.568,502.373 285.313,514.168 295.237,509.034C336.78,487.541 352.391,460.967 360.475,452.632C364.117,454.68 364.285,454.277 366.521,456.481C373.22,463.084 291.82,533.278 283.595,522.42C258.576,489.388 235.816,471.67 201.954,443.084C200.358,441.737 202.13,441.57 213.525,432.532C221.715,426.036 221.297,423.899 236.561,424.354Z" style="fill:rgb(171,193,138);"/>
            </g>
            <g transform="matrix(0.885441,-0.464752,0.464752,0.885441,-175.696304,139.605659)">
                <path d="M290.425,146.634C329.238,133.393 330.864,130.066 331.667,133.435C349.282,207.357 354.823,205.629 355.972,212.115C346.535,208.215 347.408,207.17 339.432,200.974C339.354,200.582 340.416,200.579 340.337,200.186C339.882,197.907 338.812,198.361 331.339,172.554C329.326,165.603 314.116,175.194 301.679,160.204C300.3,158.543 300.349,158.569 298.195,158.668C294.867,153.962 294.322,154.454 290.425,146.634Z" style="fill:rgb(71,118,65);"/>
            </g>
            <g transform="matrix(0.885441,-0.464752,0.464752,0.885441,-175.696304,139.605659)">
                <path d="M290.425,146.634C289.835,146.047 282.352,138.608 286.686,136.929C290.753,135.353 336.327,117.695 338.144,118.929C340.625,120.614 344.189,176.939 372.221,219.631C374.54,223.163 362.668,217.538 355.972,212.115C354.823,205.629 349.282,207.357 331.667,133.435C330.864,130.066 329.238,133.393 290.425,146.634Z" style="fill:rgb(171,193,138);"/>
            </g>
            <g transform="matrix(0.885441,-0.464752,0.464752,0.885441,-175.696304,139.605659)">
                <path d="M238.929,227.471C239.993,200.901 264.849,210.91 266.295,211.808C294.483,229.327 250.293,265.401 238.929,227.471Z" style="fill:rgb(71,118,65);"/>
            </g>
            <g transform="matrix(0.885441,-0.464752,0.464752,0.885441,-175.696304,139.605659)">
                <path d="M411.491,292.861C445.359,297.661 422.224,342.578 398.615,322.362C391.918,316.627 387.952,294.781 411.491,292.861Z" style="fill:rgb(71,118,65);"/>
            </g>
            <g transform="matrix(0.885441,-0.464752,0.464752,0.885441,-175.696304,139.605659)">
                <path d="M175.697,343.485C176.412,314.446 199.658,324.641 200.174,324.985C227.001,342.838 183.047,379.103 175.697,343.485Z" style="fill:rgb(71,118,65);"/>
            </g>
            <g transform="matrix(0.885441,-0.464752,0.464752,0.885441,-175.696304,139.605659)">
                <path d="M348.743,357.321C364.455,363.472 376.351,374.831 378.404,376.791C377.912,377.498 373.312,389.665 359.477,388.858C346.294,388.089 336.916,371.287 346.581,360.583C347.965,359.051 347.643,358.981 348.743,357.321Z" style="fill:rgb(71,118,65);"/>
            </g>
            <g transform="matrix(0.885441,-0.464752,0.464752,0.885441,-175.696304,139.605659)">
                <path d="M289.386,428.604C292.259,428.782 311.463,429.971 324.499,436.498C313.706,463.02 286.787,446.079 289.386,428.604Z" style="fill:rgb(71,118,65);"/>
            </g>
            <g transform="matrix(0.885441,-0.464752,0.464752,0.885441,-175.696304,139.605659)">
                <path d="M298.195,158.668C300.349,158.569 300.3,158.543 301.679,160.204C314.116,175.194 329.326,165.603 331.339,172.554C338.812,198.361 339.882,197.907 340.337,200.186C340.416,200.579 339.354,200.582 339.432,200.974C335.815,197.931 313.081,178.805 298.195,158.668Z" style="fill:rgb(171,193,138);"/>
            </g>
        </g>
        <path d="M506.087,1021.999C506.087,1021.999 495.426,1018.181 471.711,1004.157C397.209,960.102 410.659,938.549 404.404,942.335C338.107,982.465 283.741,969.785 169.417,945.723C166.603,945.131 165.666,942.43 185.918,913.792C187.917,910.965 185.92,910.778 182.498,910.538C172.206,909.816 114.131,905.742 59.674,871.22C57.553,869.875 35.563,855.935 34.484,852.508C33.627,849.787 88.696,818.665 145.495,812.44C157.22,811.154 136.842,809.708 103.939,755.25C92.523,736.356 76.927,696.163 83.462,696.881C129.157,701.902 140.476,701.529 180.475,713.617C187.697,715.8 173.585,706.615 174.67,648.503C174.738,644.837 175.545,601.612 184.445,603.729C236.951,616.219 264.782,640.059 267.438,639.161C276.021,636.257 275.82,636.144 284.453,633.401C289.319,631.856 283.205,617.159 313.939,575.822C319.397,568.48 319.996,565.833 328.365,569.784C382.686,595.425 389.923,623.442 392.37,618.381C410.794,580.275 407.456,561.243 465.35,494.376C467.598,491.78 451.765,467.469 483.777,449.95C511.49,434.785 518.234,450.061 535.204,433.242C536.814,431.646 521.548,378.817 544.763,328.614C584.165,243.404 654.671,259.124 700.395,245.129C752.548,229.167 737.389,189.326 671.806,194.778C617.715,199.275 597.806,221.61 571.804,222.614C519.352,224.64 617.801,149.266 729.186,148.707C843.701,148.133 895.163,229.58 884.402,297.996C860.465,450.173 761.766,521.686 740.831,536C708.712,557.96 708.26,558.704 669.557,562.683C668.017,562.842 664.863,575.361 664.576,576.501C663.442,581.003 687.823,565.337 691.128,569.803C717.546,605.494 719.206,617.172 723.225,630.577C723.586,631.779 723.747,631.906 740.409,638.77C744.313,640.379 773.217,615.699 824.561,603.765C829.41,602.638 829.865,611.434 830.582,615.485C841.778,678.806 827.357,706.443 826.819,713.487C826.265,720.743 830.819,705.647 916.462,698.053C924.592,697.332 930.53,692.538 928.06,700.374C903.807,777.301 876.302,792.087 860.456,810.478C858.212,813.083 862.638,809.761 902.378,819.948C930.417,827.135 978.646,850.065 975.023,853.067C910.568,906.454 836.425,909.789 823.477,910.371C819.965,910.529 826.951,916.735 841.166,943.655C842.929,946.993 839.012,944.819 795.502,955.506C637.679,994.271 605.72,930.834 601.775,943.588C588.116,987.743 506.087,1021.999 506.087,1021.999Z" style="fill:rgb(38,60,73);"/>
        <g transform="matrix(0.908105,0,0,0.908105,-17.045693,220.259541)">
            <g transform="matrix(1,0,0,1,16.497778,-81.92)">
                <path d="M397.857,146.437C396.167,131.135 395.949,131.238 395.84,125.49C393.083,-19.205 583.506,-29.346 610.006,94.591C629.537,185.935 547.144,260.726 468.594,231.244C408.532,208.702 400.218,155.687 397.857,146.437Z" style="fill:rgb(184,129,46);"/>
            </g>
            <g transform="matrix(1,0,0,1,16.497778,-81.92)">
                <path d="M572.384,42.593C579.741,49.565 582.326,52.839 583.095,53.813C655.11,145.034 528.515,273.272 433.275,183.99C437.878,180.539 437.351,180.29 440.461,175.477C440.847,174.784 441.234,174.091 441.62,173.399C440.738,172.246 439.949,171.024 439.067,169.872C370.641,80.475 482.149,-16.715 562.24,50.986C567.403,46.86 567.36,47.003 572.384,42.593Z" style="fill:rgb(217,174,89);"/>
            </g>
            <g transform="matrix(1,0,0,1,16.497778,-81.92)">
                <path d="M572.384,42.593C567.36,47.003 567.403,46.86 562.24,50.986C482.149,-16.715 370.641,80.475 439.067,169.872C439.949,171.024 440.738,172.246 441.62,173.399C441.234,174.091 440.847,174.784 440.461,175.477C437.351,180.29 437.878,180.539 433.275,183.99C432.93,183.679 428.972,180.1 428.972,180.1C349.476,84.945 474.07,-41.947 572.384,42.593Z" style="fill:rgb(237,211,140);"/>
            </g>
            <g transform="matrix(1,0,0,1,16.497778,-81.92)">
                <path d="M455.35,208.844C456.822,209.543 458.225,210.384 459.697,211.083C469.976,215.961 477.406,212.859 473.599,223.547C471.647,229.03 439.596,208.052 455.35,208.844Z" style="fill:rgb(217,174,89);"/>
            </g>
            <g transform="matrix(1,0,0,1,16.497778,-81.92)">
                <path d="M447.457,211.621C444.81,209.587 427.045,195.936 418.639,181.437C411.541,169.195 421.648,181.932 421.809,182.137C437.351,201.921 448.86,199.025 448.342,211.257L447.457,211.621Z" style="fill:rgb(217,174,89);"/>
            </g>
            <g transform="matrix(1,0,0,1,16.497778,-81.92)">
                <path d="M503.514,220.896C511.618,221.03 509.389,224.533 509.054,228.326C508.857,230.559 492.225,230.017 491.936,227.408C490.999,218.946 495.077,220.885 503.514,220.896Z" style="fill:rgb(217,174,89);"/>
            </g>
            <g transform="matrix(1,0,0,1,16.497778,-81.92)">
                <path d="M515.409,220.18C528.728,217.749 528.859,218.037 529.247,218.674C533.945,226.384 524.287,227.875 523.416,228.009C505.876,230.716 514.601,220.566 515.409,220.18Z" style="fill:rgb(217,174,89);"/>
            </g>
            <g transform="matrix(1,0,0,1,16.497778,-81.92)">
                <path d="M546.48,219.628C545.811,213.413 545.635,213.457 545.987,212.775C546.834,211.137 557.289,206.601 557.482,206.693C558.706,207.282 564.78,212.64 546.48,219.628Z" style="fill:rgb(217,174,89);"/>
            </g>
            <g transform="matrix(1,0,0,1,16.497778,-81.92)">
                <path d="M567.622,199.656C587.827,183.105 566.842,210.378 562.511,210.296C561.567,210.278 556.874,207.753 567.622,199.656Z" style="fill:rgb(217,174,89);"/>
            </g>
            <g transform="matrix(1,0,0,1,16.497778,-81.92)">
                <path d="M480.512,218.394C486.448,219.629 488.151,219.65 487.595,226.522C487.385,229.112 475.374,229.844 477.746,219.596C478.146,217.87 478.689,218.535 480.512,218.394Z" style="fill:rgb(217,174,89);"/>
            </g>
            <g transform="matrix(1,0,0,1,16.497778,-81.92)">
                <path d="M539.509,214.541C548.76,214.563 534.854,229.618 533.791,223.401C532.286,214.598 538.384,214.971 539.509,214.541Z" style="fill:rgb(217,174,89);"/>
            </g>
            <g transform="matrix(1,0,0,1,16.497778,-81.92)">
                <path d="M576.7,194.587C579.645,185.688 594.277,174.122 589.242,181.391C581.64,192.366 577.89,197.471 576.7,194.587Z" style="fill:rgb(217,174,89);"/>
            </g>
        </g>
        <path d="M778.177,373.643C770.299,330.342 738.288,294.716 716.506,278.479C719.257,277.629 768.1,241.749 747.188,207.368C731.844,182.14 694.82,178.609 658.763,185.118C604.45,194.924 552.331,223.902 579.812,207.085C700.491,133.233 867.291,144.634 867.829,282.702C868.033,335.12 828.005,379.184 788.807,415C785.239,418.26 784.551,413.855 785.154,406.446C785.526,401.887 821.223,373.36 840.169,328.619C872.078,253.267 821.29,201.929 827.589,212.167C836.125,226.041 853.947,263.131 826.822,318.891C813.819,345.621 779.601,381.471 778.177,373.643Z" style="fill:rgb(81,141,179);"/>
        <path d="M670.306,408.739L670.712,409.532C669.347,411.083 660.238,419.239 664.657,433.455C670.733,452.999 677.582,451.583 679.119,452.97C682.137,455.693 648.395,466.702 618.561,510.514C613.513,517.927 634.023,498.197 650.745,485.86C689.384,457.354 724.263,449.094 723.456,452.498C719.395,469.63 720.184,470.871 705.814,480.941C657.798,514.588 639.292,582.541 643.664,626.487C647.729,667.337 651.111,667.692 654.498,667.492C635.174,683.035 631.954,680.114 592.524,686.659C590.369,687.017 590.505,686.424 589.331,686.288C590.489,681.328 597.574,650.995 567.512,626.477C574.297,592.857 576.18,593.58 577.717,590.281C578.414,590.618 589.952,597.551 599.618,593.834C614.02,588.294 590.588,603.994 602.26,671.558C602.768,674.494 609.586,672.828 613.397,672.086C620.18,670.765 609.836,638.913 615.301,643.79C616.304,644.685 623.335,650.959 631.464,648.375C653.638,641.324 630.386,605.034 627.646,599.384C625.305,594.56 613.08,626.7 613.851,617.457C618.061,566.925 650.355,520.834 655.496,513.496C656.485,512.085 659.264,514.683 660.622,515.197C681.078,522.936 676.973,484.253 678.755,482.644C688.77,473.601 657.022,489.731 653.929,499.643C649.163,514.914 645.017,512.281 633.94,527.804C630.975,531.96 630.032,528.702 617.414,518.605C595.72,501.245 547.164,555.511 570.758,585.072C563.688,591.299 562.277,614.971 557.198,620.962C530.576,617.455 510.113,641.642 532.882,679.242C534.74,682.311 534.652,683.335 547.434,686.12C546.422,690.36 548.021,695.8 601.46,693.163C638.786,691.322 654.544,680.245 658.409,677.528C664.78,688.466 668.893,688.882 674.61,693.146C664.666,697.428 664.961,698.013 654.269,700.308C652.267,700.737 652.881,701.394 652.315,701.837C612.72,690.445 603.14,706.336 599.809,714.487C589.369,714.583 576.667,716.876 584.698,721.104C585.603,721.581 585.654,721.426 597.894,722.752C597.769,752.287 622.081,745.262 616.071,753.192C601.77,772.062 603.148,773.227 601.349,774.216C596.535,776.864 606.679,757.261 550.383,700.624C546.955,697.175 519.98,670.036 506.378,658.691C503.699,656.455 498.566,664.702 479.981,680.922C474.151,673.371 484.12,647.044 480.48,644.454C508.145,626.063 523.835,598.23 490.471,576.673C493.659,571.496 503.94,545.67 509.827,539.765C510.87,538.719 510.687,538.772 511.284,537.5C511.366,537.326 511.284,537.5 513.689,537.6C502.998,565.123 533.583,568.546 539.439,549.48C543.444,536.441 543.361,517.946 543.888,515.478C544.38,513.175 541.498,512.699 518.668,530.651C518.322,529.572 517.526,530.495 517.207,529.5C517.176,529.404 517.144,529.303 517.979,528.5C518.26,528.23 518.717,528.153 518.941,527.833C522.79,522.335 534.756,505.242 577.242,467.5L578.355,466.554C582.566,474.795 584.565,475.008 582.427,477.43C570.996,490.381 570.911,490.13 561.705,504.561C554.445,515.941 564.938,503.011 574.893,493.977C584.134,485.589 583.186,480.981 595.461,483.658C621.475,489.333 677.073,458.646 644.573,422.426C643.016,420.691 644.21,419.316 670.306,408.739Z" style="fill:rgb(81,141,179);"/>
        <path d="M435.227,847.699C437.63,842.775 431.813,841.987 429.804,829.438C422.665,784.861 449.931,754.448 474.091,731.076C503.708,702.424 503.469,697.643 505.341,699.715C543.989,742.506 562.231,753.445 572.3,776.596C593.409,825.127 573.426,844.622 573.465,846.5C573.478,847.102 574.783,847.119 574.796,847.72C570.895,852.636 555.787,877.118 518.523,881.72C509.487,882.836 513.962,876.463 510.011,805.521C509.748,800.801 506.843,748.648 505.247,746.618C503.113,743.905 504.018,747.98 501.948,771.53C495.5,844.874 498.177,881.942 493.514,881.804C459.999,880.814 438.463,852.025 435.227,847.699Z" style="fill:rgb(217,174,89);"/>
        <path d="M604.109,819.432C604.389,819.094 606.461,820.417 608.073,812.337C617.338,765.881 718.758,719.802 719.415,719.367C730.29,712.177 733.331,706.696 734.636,705.705C737.697,703.378 753.728,766.104 719.383,815.425C712.407,825.444 710.575,825.192 711.989,827.999C706.99,833.21 678.931,862.456 633.501,872.573C616.772,876.299 663.694,862.975 698.081,811.22C717.501,781.99 727.749,736.275 719.042,758.097C712.372,774.814 678.922,830.534 633.231,855.058C605.663,869.855 570.337,878.387 573.745,874.62C592.404,853.997 595.835,852.631 604.109,819.432Z" style="fill:rgb(217,174,89);"/>
        <path d="M283.298,803.594C280.41,796.847 262.232,754.374 271.808,712.581C274.903,699.068 278.757,713.11 290.741,720.06C300.649,725.805 393.217,763.011 403.897,820.5C403.929,820.677 403.897,820.5 405.941,821.429C415.219,854.421 417.522,853.505 436.128,874.693C439.337,878.348 412.952,870.534 395.666,864.081C333.549,840.893 296.468,773.043 290.951,759.19C278.278,727.365 292.238,771.461 292.561,772.482C317.887,852.477 396.581,878.389 375.508,872.421C329.822,859.482 316.637,846.477 298.098,828.893C298.071,827.793 298.798,827.817 298.048,826.863C297.968,826.762 297.484,826.146 297.179,825.5C297.165,825.47 294.703,821.828 294.488,821.509C288.787,813.074 288.314,813.511 283.625,804.438L283.298,803.594Z" style="fill:rgb(217,174,89);"/>
        <path d="M430.493,902.492C455.188,883.006 459.028,890.662 466.494,893.515C481.984,899.435 495.506,899.781 495.865,902.411C503.459,958.113 502.545,964.068 505.128,960.166C506.799,957.641 511.436,901.218 515.489,900.449C536.935,896.378 538.252,896.534 554.612,889.824C561.166,887.136 577.01,900.903 578.646,902.325C577.433,904.499 577.374,904.309 577.433,904.499C587.846,937.844 543.8,965.263 536.367,969.254C507.3,984.858 507.237,988.583 500.691,985.152C450.12,958.647 437.761,942.534 432.94,927.358C427.292,909.58 434.417,908.223 430.493,902.492Z" style="fill:rgb(81,141,179);"/>
        <path d="M734.997,327.047C746.957,340.773 744.605,342.503 748.725,346.371C752.527,349.941 751.784,358.904 754.467,352.513C757.605,361.447 787.168,428.083 748.089,498.277C726.121,537.737 690.385,545.531 677.583,544.181C674.073,543.811 684.277,528.027 687.76,525.89C696.668,520.422 751.373,486.845 740.747,406.467C720.338,252.093 547.914,268.948 564.578,413.497C564.928,416.527 563.396,415.819 556.826,419.946C554.613,418.733 552.574,417.615 553.896,388.534C557.894,300.594 656.084,237.386 734.997,327.047Z" style="fill:rgb(217,174,89);"/>
        <path d="M611.921,418.102C616.57,422.507 601.001,422.605 587.681,435.729C572.426,450.76 570.934,448.734 554.826,462.79C538.564,476.98 569.973,455.987 575.467,453.171C576.442,452.672 575.925,453.696 578.355,466.554L577.242,467.5C571.985,465.301 543.699,483.862 521.972,508C496.403,536.406 485.514,561.78 480.757,571.632C480.624,571.906 479.718,573.784 479.522,575.234C432.397,582.429 417.628,644.226 461.555,649.895C459.423,654.099 462.364,679.681 456.479,680.389C394.214,687.889 372.992,669.57 370.143,668.201C370.88,658.632 372.93,658.375 368.242,643.83C376.631,642.533 376.552,640.853 384.792,642.729C382.184,652.803 381.889,654.506 381.709,655.545C380.809,660.752 390.916,659.144 396.268,659.215C398.533,661.233 398.362,661.507 399.487,661.621C416.069,663.308 407.023,600.624 488.5,505.501C491.263,505.498 510.367,505.479 522.252,498.137C550.45,480.717 542.432,464.906 541.284,459.659C551.651,453.212 595.808,422.741 611.921,418.102Z" style="fill:rgb(81,141,179);"/>
        <path d="M570.758,585.072C547.164,555.511 595.72,501.245 617.414,518.605C630.032,528.702 630.975,531.96 633.94,527.804C645.017,512.281 649.163,514.914 653.929,499.643C657.022,489.731 688.77,473.601 678.755,482.644C676.973,484.253 681.078,522.936 660.622,515.197C659.264,514.683 656.485,512.085 655.496,513.496C650.355,520.834 618.061,566.925 613.851,617.457C613.08,626.7 625.305,594.56 627.646,599.384C630.386,605.034 653.638,641.324 631.464,648.375C623.335,650.959 616.304,644.685 615.301,643.79C609.836,638.913 620.18,670.765 613.397,672.086C609.586,672.828 602.768,674.494 602.26,671.558C590.588,603.994 614.02,588.294 599.618,593.834C589.952,597.551 578.414,590.618 577.717,590.281C575.397,588.544 573.078,586.808 570.758,585.072Z" style="fill:rgb(38,60,73);"/>
        <path d="M207.828,889.862C206.542,890.841 205.439,892.048 204.152,893.026C197.774,897.877 122.698,891.5 67.61,855.391C63.053,852.404 118.46,831.322 158.492,828.408C178.591,826.945 176.628,834.097 214.921,852.341L214.565,853.596C206.372,853.539 189.657,854.209 187.492,854.295C140.19,856.19 130.181,855.826 137.377,857.699C172.604,866.865 230.312,869.302 238.447,869.646L238.632,870.467C237.685,871.245 238.054,871.42 236.857,871.925C225.811,876.585 210.025,888.241 207.828,889.862Z" style="fill:rgb(81,141,179);"/>
        <path d="M298.497,872.972C328.564,873.215 328.466,873.201 328.576,873.235C329.586,873.545 338.009,877.932 340.391,878.758C347.837,881.343 339.508,882.248 339.42,882.279C316.662,890.269 275.985,911.14 275.649,911.602C273.096,915.109 277.996,912.409 328.578,899.825C370.119,889.489 369.809,887.288 373.456,887.987C406.975,894.407 410.668,892.699 408.397,894.408C356.138,933.755 302.253,926.781 294.445,930.771C238.405,923.076 225.459,922.107 219.43,921.656C219.15,921.262 218.871,920.868 218.591,920.474C218.942,918.52 239.347,898.446 254.671,890.839C278.797,878.864 300.298,875.133 300.299,875.125C300.336,874.19 298.459,873.907 298.497,872.972Z" style="fill:rgb(81,141,179);"/>
        <path d="M708.539,872.979C708.894,876.982 721.968,877.321 738.437,883.669C759.234,891.683 770.74,899.025 789.173,917.728C793.262,921.876 787.148,921.743 717.565,930.87C716.514,930.342 637.671,926.932 601.788,894.346C599.821,892.559 603.577,895.421 634.476,888.414C637.003,887.841 733.724,914.635 733.389,911.523C733.085,908.697 700.418,894.85 697.461,893.597C682.062,887.07 682.233,887.263 666.5,881.5L666.211,880.502C685.489,869.78 686.533,873.19 708.539,872.979Z" style="fill:rgb(81,141,179);"/>
        <path d="M708.539,872.979C727.36,873.843 729.216,874.003 730.541,874.286C789.659,886.919 819.669,932.585 813.366,934.092C740.41,951.535 705.033,951.118 695.509,951.005C653.156,950.506 606.279,930.789 603.306,914.533C602.483,910.033 605.098,912.245 606.671,913.223C631.78,928.825 681.875,936.729 717.565,930.87C787.148,921.743 793.262,921.876 789.173,917.728C770.74,899.025 759.234,891.683 738.437,883.669C721.968,877.321 708.894,876.982 708.539,872.979Z" style="fill:rgb(217,174,89);"/>
        <path d="M298.497,872.972C307.562,872.769 304.319,874.19 300.299,875.125C300.291,875.127 278.797,878.864 254.671,890.839C239.347,898.446 218.942,918.52 218.591,920.474C218.871,920.868 219.15,921.262 219.43,921.656C225.459,922.107 238.405,923.076 294.445,930.771C295.025,930.855 351.791,940.84 402.246,914.027C409.094,910.388 406.307,918.25 403.238,921.211C358.891,963.996 266.359,947.694 254.483,945.602C196.339,935.359 192.082,934.79 194.922,930.784C222.568,891.786 251.026,875.563 298.497,872.972Z" style="fill:rgb(217,174,89);"/>
        <path d="M526.862,701.115C525.339,704.42 528.903,708.956 533.038,706.978C571.568,743.608 609.146,790.866 574.796,847.72C574.783,847.119 573.478,847.102 573.465,846.5C573.426,844.622 593.409,825.127 572.3,776.596C562.231,753.445 543.989,742.506 505.341,699.715C503.469,697.643 503.708,702.424 474.091,731.076C449.931,754.448 422.665,784.861 429.804,829.438C431.813,841.987 437.63,842.775 435.227,847.699C396.231,780.418 445.658,736.289 495.311,689.304C501.794,683.169 502.111,677.379 508.502,683.497C525.508,699.778 525.392,699.708 526.862,701.115Z" style="fill:rgb(237,211,140);"/>
        <path d="M479.522,575.234C485.115,575.447 485.004,575.34 490.471,576.673C523.835,598.23 508.145,626.063 480.48,644.454C471.3,648.251 471.5,648.751 461.555,649.895C417.628,644.226 432.397,582.429 479.522,575.234Z" style="fill:rgb(38,60,73);"/>
        <path d="M617.695,195.209C738.147,152.798 773.941,193.103 772.411,218.966C770.245,255.575 719.257,277.629 716.506,278.479C699.544,268.783 693.694,269.061 700.249,265.744C806.03,212.226 712.867,184.593 699.323,184.318C646.043,183.237 606.731,199.069 617.695,195.209Z" style="fill:rgb(237,211,140);"/>
        <path d="M831.31,832.333C840.155,835.471 840.179,834.365 849.478,835.651C867.623,838.161 920.398,851.569 912.271,857.236C870.657,886.258 804.315,887.762 801.475,889.525C772.516,868.632 767.741,871.956 769.525,869.525C769.563,869.474 802.872,869.7 860.517,859.589C861.512,859.415 885.17,855.265 872.486,855.551C834.276,856.412 834.529,853.139 796.488,853.542C790.54,853.605 797.05,851.189 797.241,851.119C805.71,847.976 828.654,833.956 831.31,832.333Z" style="fill:rgb(81,141,179);"/>
        <path d="M825.034,427.3C808.468,453.885 762.065,507.117 766.81,498.615C774.625,484.611 784.22,448.6 786.087,446.484C800.713,429.911 842.389,389.762 869.709,326.723C870.247,325.48 855.468,378.461 825.034,427.3Z" style="fill:rgb(184,129,46);"/>
        <path d="M698.424,170.244C690.884,167.703 802.713,155.791 812.16,228.438C818.673,278.516 770.3,323.697 761.352,329.646C755.282,320.269 755.574,320.362 750.073,312.649C768.645,299.144 798.467,271.242 795.861,232.982C791.112,163.254 705.271,172.552 698.424,170.244Z" style="fill:rgb(217,174,89);"/>
        <path d="M114.534,717.178C112.824,718.127 111.935,718.018 113.005,719.772C113.286,720.234 143.354,789.479 236.566,823.337C263.143,832.991 264.258,832.484 266.518,831.457C286.493,838.132 285.095,840.478 301.214,853.786C313.615,864.026 223.565,851.386 170.847,807.097C164.102,801.43 121.967,766.032 105.412,718.527C105.169,717.831 105.053,715.891 114.534,717.178Z" style="fill:rgb(217,174,89);"/>
        <path d="M902.811,721.641C884.892,758.883 857.324,812.884 766.412,846.274C740.609,855.751 703.303,859.733 707.884,854.795C709.345,853.219 723.449,838.018 727.431,836.36C735.284,833.091 735.423,834.011 743.36,831.164C749.575,833.803 760.841,825.516 766.678,824.989C776.549,824.099 841.893,797.032 876.202,751.274C897.149,723.338 897.872,712.473 902.811,721.641Z" style="fill:rgb(217,174,89);"/>
        <path d="M430.493,902.492C434.417,908.223 427.292,909.58 432.94,927.358C437.761,942.534 450.12,958.647 500.691,985.152C507.237,988.583 507.3,984.858 536.367,969.254C543.8,965.263 587.846,937.844 577.433,904.499C577.374,904.309 577.433,904.499 578.646,902.325C611.33,945.518 549.496,976.608 508.27,1002.143C505.652,1003.764 504.773,1004.309 473.771,985.059C471.259,983.499 396.693,945.74 430.493,902.492Z" style="fill:rgb(217,174,89);"/>
        <path d="M283.298,803.594C283.407,803.876 283.516,804.157 283.625,804.438C288.314,813.511 288.787,813.074 294.488,821.509C294.703,821.828 297.165,825.47 297.179,825.5C297.484,826.146 297.968,826.762 298.048,826.863C298.798,827.817 298.071,827.793 298.098,828.893C294.638,825.113 286.048,816.59 276.69,799.394C247.475,745.709 265.665,688.164 268.23,689.993C322.765,728.887 349.402,730.721 378.454,761.544C404.518,789.196 404.634,811.621 405.941,821.429C403.897,820.5 403.929,820.677 403.897,820.5C393.217,763.011 300.649,725.805 290.741,720.06C278.757,713.11 274.903,699.068 271.808,712.581C262.232,754.374 280.41,796.847 283.298,803.594Z" style="fill:rgb(237,211,140);"/>
        <path d="M747.988,717.447C747.068,719.148 746.348,718.679 746.337,720.5C746.107,758.624 745.037,758.822 746.839,761.57C745.251,767.719 741.754,794.138 711.989,827.999C710.575,825.192 712.407,825.444 719.383,815.425C753.728,766.104 737.697,703.378 734.636,705.705C733.331,706.696 730.29,712.177 719.415,719.367C718.758,719.802 617.338,765.881 608.073,812.337C606.461,820.417 604.389,819.094 604.109,819.432C608.586,783.328 618.318,764.573 674.347,729.235C694.24,716.689 704.916,717.312 740.749,689.875C742.56,688.489 744.259,689.903 747.988,717.447Z" style="fill:rgb(237,211,140);"/>
        <path d="M206.547,629.395C203.703,631.7 203.649,631.69 203.051,635.198C195.466,681.608 242.527,746.532 245.031,756.558C248.262,773.384 248.835,773.077 253.418,789.499C253.566,790.027 252.34,790.845 251.712,790.189C188.771,724.378 187.948,676.19 193.961,627.576C194.483,623.348 202.29,627.696 206.547,629.395Z" style="fill:rgb(217,174,89);"/>
        <path d="M800.398,630.26C801.441,629.868 812.534,625.707 813.5,625.528C814.588,625.327 826.179,660.63 808.247,715.427C797.438,748.455 754.049,796.474 755.784,789.505C758.914,776.928 760.099,777.469 765.087,754.392C782.184,719.696 807.809,691.222 806.985,637.295C806.264,632.885 807.961,630.428 803.5,631.081C801.792,631.332 802.039,630.694 800.398,630.26Z" style="fill:rgb(217,174,89);"/>
        <path d="M144.489,751.505C128.458,733.338 128.51,730.959 130.454,731.277C187.663,740.647 193.658,746.987 197.5,751.05C198.388,751.99 198.567,751.183 199.792,751.336C229.077,796.362 233.053,793.288 247.222,806.731C253.52,812.707 208.391,792.581 194.776,785.004C152.203,761.311 148.941,749.891 144.489,751.505Z" style="fill:rgb(217,174,89);"/>
        <path d="M814.63,748.713C831.623,740.64 832.998,740.673 874.528,731.705C879.091,730.72 878.703,732.205 878.619,732.528C878.312,733.705 866.686,749.142 865.616,750.563C861.699,749.991 862.259,751.374 859.286,754.236C830.701,781.757 768.193,806.579 762.454,807.58L762.179,806.426C783.975,789.966 806.925,755.251 810.182,750.323C812.659,751.368 812.528,750.375 814.63,748.713Z" style="fill:rgb(217,174,89);"/>
        <path d="M729.864,313.177C730.085,313.865 728.279,314.175 728.5,314.863C729.112,316.765 733.11,321.874 733.559,322.449C736.158,325.769 737.061,324.78 736.977,325.117C736.754,326.011 735.22,326.153 734.997,327.047C656.084,237.386 557.894,300.594 553.896,388.534C552.574,417.615 554.613,418.733 556.826,419.946C552.11,422.553 550.295,426.229 549.451,421.511C534.437,337.602 589.83,277.317 637.53,273.89C680.965,270.769 704.169,286.788 729.864,313.177Z" style="fill:rgb(237,211,140);"/>
        <path d="M831.31,832.333C833.691,830.778 834.151,822.7 885.429,833.895C914.379,840.215 944.69,852.743 941.341,855.354C934.748,860.495 885.235,889.993 827.51,893.664C811.382,894.689 808.956,895.709 801.475,889.525C804.315,887.762 870.657,886.258 912.271,857.236C920.398,851.569 867.623,838.161 849.478,835.651C840.179,834.365 840.155,835.471 831.31,832.333Z" style="fill:rgb(217,174,89);"/>
        <path d="M902.811,721.641C897.872,712.473 897.149,723.338 876.202,751.274C841.893,797.032 776.549,824.099 766.678,824.989C760.841,825.516 749.575,833.803 743.36,831.164C812.336,804.67 838.717,780.285 865.616,750.563C866.686,749.142 878.312,733.705 878.619,732.528C878.703,732.205 879.091,730.72 874.528,731.705C832.998,740.673 831.623,740.64 814.63,748.713C812.528,750.375 812.659,751.368 810.182,750.323C814.022,743.826 814.023,744.058 817.7,737.603C820.26,733.11 853.603,721.387 901.492,716.388C905.282,715.993 904.107,717.93 902.811,721.641Z" style="fill:rgb(237,211,140);"/>
        <path d="M114.534,717.178C118.629,717.802 147.89,722.257 165.375,726.971C194.521,734.828 192.618,739.407 199.792,751.336C198.567,751.183 198.388,751.99 197.5,751.05C193.658,746.987 187.663,740.647 130.454,731.277C128.51,730.959 128.458,733.338 144.489,751.505C162.76,771.291 162.347,771.635 183.86,788.022C183.415,788.67 182.468,788.852 182.023,789.5C181.86,789.737 194.893,798.265 196.707,800.245C198.205,801.88 202.226,802.929 202.742,803.064C205.035,803.662 204.388,802.237 204.814,802.022C217.769,809.709 227.209,816.824 266.518,831.457C264.258,832.484 263.143,832.991 236.566,823.337C143.354,789.479 113.286,720.234 113.005,719.772C111.935,718.018 112.824,718.127 114.534,717.178Z" style="fill:rgb(237,211,140);"/>
        <path d="M488.5,505.501C407.023,600.624 416.069,663.308 399.487,661.621C398.362,661.507 398.533,661.233 396.268,659.215C401.063,652.105 415.67,568.661 477.681,504.706C478.55,503.809 478.749,504.28 488.5,505.501Z" style="fill:rgb(122,186,210);"/>
        <path d="M569.522,687.44C529.791,671.274 535.484,604.642 566.442,636.558C586.003,656.725 586.37,680.35 577.226,687.361C573.369,688.377 573.41,688.153 569.522,687.44Z" style="fill:rgb(237,211,140);"/>
        <path d="M764.56,599.853C750.21,603.302 750.602,604.358 740.333,615.27C731.938,624.191 735.256,560.058 772.485,560.75C787.524,561.029 805.353,592.231 764.56,599.853Z" style="fill:rgb(38,60,73);"/>
        <path d="M493.05,592.517C489.846,634.736 428.087,646.772 445.673,609.582C454.675,590.544 487.883,569.821 493.05,592.517Z" style="fill:rgb(237,211,140);"/>
        <path d="M366.165,526.353C372.497,512.054 373.656,509.765 374.371,508.354C375.606,505.917 376.913,508.416 390.047,538.68C403.297,569.214 379.414,576.881 369.549,573.343C342.418,563.612 364.659,529.513 366.165,526.353Z" style="fill:rgb(38,60,73);"/>
        <path d="M557.198,620.962C562.488,623.527 562.402,623.237 567.512,626.477C597.574,650.995 590.489,681.328 589.331,686.288C583.576,689.116 583.421,689.086 577.226,687.361C586.37,680.35 586.003,656.725 566.442,636.558C535.484,604.642 529.791,671.274 569.522,687.44C565.234,689.647 556.916,686.039 556.406,685.581C548.642,677.128 534.772,663.062 537.193,638.46C537.969,630.582 530.142,638.694 531.383,650.511C533.691,672.486 549.171,685.337 549.488,686.385L547.434,686.12C534.652,683.335 534.74,682.311 532.882,679.242C510.113,641.642 530.576,617.455 557.198,620.962Z" style="fill:rgb(38,60,73);"/>
        <path d="M589.609,578.693C547.394,594.042 590.854,506.837 612.147,525.886C613.596,527.182 625.181,553.809 589.609,578.693Z" style="fill:rgb(237,211,140);"/>
        <path d="M271.198,589.614C278.686,615.29 273.056,616.883 271.441,615.577C257.05,603.936 255.649,606.97 238.654,602.037C202.706,591.601 236.328,546.175 263.082,576.875C268.084,582.615 267.61,582.783 271.198,589.614Z" style="fill:rgb(38,60,73);"/>
        <path d="M473.735,686.879C412.071,746.295 415.402,758.569 409.099,773.226C407.634,776.632 407.447,772.821 405.134,768.72C396.951,754.214 378.431,740.007 383.489,741.315C387.494,742.35 424.257,751.853 432.749,725.564C441.216,699.348 417.118,692.449 414.388,690.829C415.652,690.56 414.22,689.307 415.5,689.034C416.206,688.884 416.123,689.126 424.515,688.673C449.961,687.299 466.918,684.181 473.735,686.879Z" style="fill:rgb(81,141,179);"/>
        <path d="M627.503,425.771C665.848,428.819 619.129,472.978 592.419,465.788C580.007,462.446 582.019,433.143 627.503,425.771Z" style="fill:rgb(237,211,140);"/>
        <path d="M531.209,462.475C520.185,497.022 443.967,491.423 481.789,461.85C491.997,453.868 528.309,439.461 531.209,462.475Z" style="fill:rgb(237,211,140);"/>
        <path d="M627.457,376.087C630.55,376.024 652.611,375.572 665.087,384.996C668.966,387.927 671.387,394.846 669.332,398.415C654.332,424.468 570.587,388.587 627.457,376.087Z" style="fill:rgb(237,211,140);"/>
        <path d="M701.407,400.21C709.217,398.635 709.021,398.335 713.491,398.169C727.5,397.649 724.923,403.394 725.899,417.497C726.462,425.617 693.22,440.725 676.781,433.005C673.812,431.61 656.842,418.334 701.407,400.21Z" style="fill:rgb(237,211,140);"/>
        <path d="M480.48,644.454C484.12,647.044 474.151,673.371 479.981,680.922C476.857,684.054 476.792,683.812 473.735,686.879C466.918,684.181 449.961,687.299 424.515,688.673C416.123,689.126 416.206,688.884 415.5,689.034C414.22,689.307 415.652,690.56 414.388,690.829C401.76,686.817 399.692,686.314 383.506,686.662C381.5,684.77 381.719,684.795 381.5,684.77C375.468,684.105 364.649,678.114 363.272,677.352C367.357,673.132 367.259,673.199 370.143,668.201C372.992,669.57 394.214,687.889 456.479,680.389C462.364,679.681 459.423,654.099 461.555,649.895C471.5,648.751 471.3,648.251 480.48,644.454Z" style="fill:rgb(122,186,210);"/>
        <path d="M726.975,668.224C735.206,686.804 700.304,685.568 681.765,676.009C638.511,653.706 702.871,636.933 726.975,668.224Z" style="fill:rgb(237,211,140);"/>
        <path d="M391.437,723.914C380.756,721.063 380.414,722.171 373.781,718.073C342.467,698.726 401.062,683.913 423.186,705.825C425.263,707.882 436.101,727.759 391.437,723.914Z" style="fill:rgb(237,211,140);"/>
        <path d="M329.542,640.903C332.062,640.804 353.96,639.945 360.338,647.635C376.486,667.106 294.927,680.329 300.773,656.557C303.082,647.167 326.993,641.507 329.542,640.903Z" style="fill:rgb(237,211,140);"/>
        <path d="M311.444,629.235C311.07,629.316 302.809,633.772 305.923,625.641C321.242,585.634 327.176,588.394 330.317,589.856C345.599,596.964 372.308,619.571 366.444,620.311C341.224,623.494 341.379,623.028 311.444,629.235Z" style="fill:rgb(217,174,89);"/>
        <path d="M758.172,681.596C755.215,672.451 755.977,672.281 752.572,666.451C748.178,658.927 746.656,665.201 740.479,671.474C736.902,675.106 736.934,665.304 730.301,658.683C717.997,646.4 715.576,650.333 714.667,649.185C713.019,647.105 716.494,646.441 746.549,658.381C765.461,665.894 786.42,686.8 787.679,690.425C788.915,693.984 770.494,723.087 766.302,729.32C762.481,735.002 767.357,723.331 758.172,681.596Z" style="fill:rgb(81,141,179);"/>
        <path d="M518.668,530.651C515.973,533.981 515.855,533.727 513.689,537.6C511.284,537.5 511.366,537.326 511.284,537.5C510.687,538.772 510.87,538.719 509.827,539.765C503.94,545.67 493.659,571.496 490.471,576.673C485.004,575.34 485.115,575.447 479.522,575.234C479.718,573.784 480.624,571.906 480.757,571.632C485.514,561.78 496.403,536.406 521.972,508C543.699,483.862 571.985,465.301 577.242,467.5C534.756,505.242 522.79,522.335 518.941,527.833C518.717,528.153 518.26,528.23 517.979,528.5C517.144,529.303 517.176,529.404 517.207,529.5C517.526,530.495 518.322,529.572 518.668,530.651Z" style="fill:rgb(122,186,210);"/>
        <path d="M520.894,636.196C519.381,627.53 526.57,586.974 536.366,566.45C567.211,501.818 608.854,482.329 602.132,490.264C597.908,495.25 566.396,519.562 539,583.287C528.686,607.279 527.448,606.847 522.95,632.743C522.566,634.951 521.95,634.422 520.894,636.196Z" style="fill:rgb(122,186,210);"/>
        <path d="M699.407,628.926C680.929,624.927 681.141,625.061 662.423,621.862C660.091,621.463 660.316,605.893 660.336,604.494C660.41,599.341 665.444,597.208 679.696,590.946C682.319,589.794 687.143,587.674 701.033,619.704C703.681,625.812 706.146,629.625 699.407,628.926Z" style="fill:rgb(217,174,89);"/>
        <path d="M292.031,662.488C295.316,682.442 297.725,683.543 320.51,689.107C325.004,694.634 351.849,706.121 356.452,706.478C354.835,720.385 354.825,721.693 353.403,720.79C322.724,701.313 308.346,701.617 269.353,670.896C272.292,669.294 276.45,665.208 292.031,662.488Z" style="fill:rgb(81,141,179);"/>
        <path d="M642.691,730.715C639.178,733.181 638.242,738.157 626.506,733.485C617.091,729.738 611.444,723.862 610.957,723.13C592.85,695.892 675.362,709.592 661.215,718.025C650.711,724.286 651.028,724.494 642.691,730.715Z" style="fill:rgb(217,174,89);"/>
        <path d="M206.547,629.395C208.708,630.261 225.921,637.156 233.239,640.999C238.119,643.562 249.41,649.053 243.617,652.717C213.856,671.54 214.19,675.934 212.774,673.326C206.63,662.013 204.907,636.615 203.051,635.198C203.649,631.69 203.703,631.7 206.547,629.395Z" style="fill:rgb(217,174,89);"/>
        <path d="M518.668,530.651C541.498,512.699 544.38,513.175 543.888,515.478C543.361,517.946 543.444,536.441 539.439,549.48C533.583,568.546 502.998,565.123 513.689,537.6C515.855,533.727 515.973,533.981 518.668,530.651Z" style="fill:rgb(38,60,73);"/>
        <path d="M800.398,630.26C802.039,630.694 801.792,631.332 803.5,631.081C807.961,630.428 806.264,632.885 806.985,637.295C806.637,637.687 805.762,636.974 805.414,637.366C805.049,637.777 804.879,652.883 796.221,672.362C794.926,675.275 795.255,670.325 763.857,649.103C760.012,646.504 797.346,631.487 800.398,630.26Z" style="fill:rgb(217,174,89);"/>
        <path d="M547.917,638.592C555.024,624.64 573.53,646.131 577.048,663.583C583.805,697.104 544.124,676.707 547.917,638.592Z" style="fill:rgb(217,174,89);"/>
        <path d="M479.501,587.773C496.775,590.69 479.342,615.141 465.264,623.095C438.047,638.471 445.12,593.745 479.501,587.773Z" style="fill:rgb(217,174,89);"/>
        <path d="M581.436,549.466C587.52,541.106 587.266,541.134 589.616,538.609C619.616,506.36 612.239,560.515 586.607,573.751C584.842,574.662 570.005,577.468 581.436,549.466Z" style="fill:rgb(217,174,89);"/>
        <path d="M630.486,379.328C632.931,379.412 651.204,380.045 660.094,386.945C665.401,391.063 665.059,396.136 662.368,398.328C646.086,411.595 585.514,387.868 630.486,379.328Z" style="fill:rgb(217,174,89);"/>
        <path d="M425.123,631.946C426.713,635.901 449.702,673.121 424.547,676.799C411.5,678.707 401.987,664.529 412.875,648.731C424.519,631.836 424.797,631.945 425.123,631.946Z" style="fill:rgb(38,60,73);"/>
        <path d="M654.498,667.492C659.028,667.49 656.259,670.123 658.409,677.528C654.544,680.245 638.786,691.322 601.46,693.163C548.021,695.8 546.422,690.36 547.434,686.12L549.488,686.385C553.158,686.662 553.315,687.569 556.406,685.581C556.916,686.039 565.234,689.647 569.522,687.44C573.41,688.153 573.369,688.377 577.226,687.361C583.421,689.086 583.576,689.116 589.331,686.288C590.505,686.424 590.369,687.017 592.524,686.659C631.954,680.114 635.174,683.035 654.498,667.492Z" style="fill:rgb(122,186,210);"/>
        <path d="M600.571,440.596C602.009,439.678 614.043,431.998 619.59,430.953C649.085,425.396 634.073,455.648 599.506,460.567C597.922,460.793 579.576,459.271 600.571,440.596Z" style="fill:rgb(217,174,89);"/>
        <path d="M723.932,413.549C714.853,430.871 662.008,435.889 681.617,415.622C691.951,404.942 721.779,396.553 723.503,407.5C723.818,409.497 723.617,411.552 723.932,413.549Z" style="fill:rgb(217,174,89);"/>
        <path d="M478.307,474.497C481.894,466.946 481.455,464.854 497.681,457.957C499.355,457.245 510.486,452.513 520.382,456.741C540.474,465.326 480.73,495.555 478.307,474.497Z" style="fill:rgb(217,174,89);"/>
        <path d="M709.569,659.318L710.431,659.661L711.608,660.286L712.445,660.613C714.441,661.935 716.437,663.257 718.433,664.579C741.075,689.09 667.78,673.927 674.627,658.551C679.136,648.424 706.936,658.376 709.569,659.318Z" style="fill:rgb(217,174,89);"/>
        <path d="M407.417,719.03C404.393,719.174 375.838,720.543 371.029,708.605C364.473,692.327 434.043,701.045 418.207,715.186C416.587,716.632 408.304,718.798 407.417,719.03Z" style="fill:rgb(217,174,89);"/>
        <path d="M343.482,644.687L349.41,645.769C370.61,655.617 333.794,668.74 312.486,662.546C304.465,660.215 303.435,642.809 343.482,644.687Z" style="fill:rgb(217,174,89);"/>
        <path d="M611.921,418.102C595.808,422.741 551.651,453.212 541.284,459.659C538.081,452.949 538.081,453.002 537.825,452.413C536.582,449.553 572.724,426.533 602.491,413.479C604.448,412.621 610.805,417.487 611.921,418.102Z" style="fill:rgb(122,186,210);"/>
        <path d="M717.991,375.475C720.025,384.664 724.892,388.986 715.534,389.987C683.144,393.45 678.735,405.141 678.325,400.508C677.692,393.349 679.421,393.345 677.515,386.498C676.339,382.273 702.676,380.479 704.53,377.232C705.848,377.247 707.165,377.261 708.483,377.276C713.854,376.627 713.924,377.236 717.991,375.475Z" style="fill:rgb(81,141,179);"/>
        <path d="M250.996,680.837C244.328,713.369 244.861,726.981 244.749,728.65C244.373,734.208 227.404,703.253 226.118,700.909C240.515,684.465 248.579,681.674 250.996,680.837Z" style="fill:rgb(81,141,179);"/>
        <path d="M366.171,548.436C369.104,537.878 369.404,538.098 374.402,528.4C375.68,525.919 384.833,542.708 384.928,553.511C385.034,565.593 363.864,573.709 366.171,548.436Z" style="fill:rgb(81,141,179);"/>
        <path d="M745.932,596.506C762.573,554.395 779.311,573.655 779.002,578.463C778.089,592.666 757.924,586.959 747.565,596.886C747.468,596.978 747.565,596.886 745.932,596.506Z" style="fill:rgb(81,141,179);"/>
        <path d="M244.476,575.714C246.714,576.501 260.049,581.185 264.599,597.497C265.081,599.226 263.688,597.881 242.603,593.061C231.391,590.497 227.612,576.059 244.476,575.714Z" style="fill:rgb(81,141,179);"/>
        <path d="M250.996,680.837C248.579,681.674 240.515,684.465 226.118,700.909C223.79,696.799 220.02,693.736 223.969,688.872C232.092,678.87 251.306,666.462 254.798,663.918C261.137,659.3 255.881,666.772 250.996,680.837Z" style="fill:rgb(122,186,210);"/>
        <path d="M705.78,350.291C712.202,361.438 712.692,361.077 717.991,375.475C713.924,377.236 713.854,376.627 708.483,377.276C706.775,376.434 687.983,367.174 693.7,358.622C694.175,357.912 697.286,353.259 701.357,351.19C703.479,350.111 704.41,351.863 704.5,351.858C705.173,351.817 705.107,350.331 705.78,350.291Z" style="fill:rgb(217,174,89);"/>
        <path d="M363.272,677.352C364.649,678.114 375.468,684.105 381.5,684.77C381.719,684.795 381.5,684.77 383.506,686.662C370.41,689.853 369.626,688.53 359.758,697.614C348.968,693.083 348.036,695.312 338.505,688.3C349.333,684.919 349.935,686.44 363.272,677.352Z" style="fill:rgb(83,142,182);"/>
        <path d="M588.578,583.652C589.964,583.084 598.361,579.638 604.019,573.067C627.003,546.37 616.507,527.073 622.342,533.672C636.063,549.19 597.224,600.29 587.804,584.6L588.578,583.652Z" style="fill:rgb(237,211,140);"/>
        <path d="M292.031,662.488C276.45,665.208 272.292,669.294 269.353,670.896C258.701,663.762 260.601,660.663 260.627,660.648C265.016,658.177 296.196,645.398 294.742,650.537C293.035,656.571 292.326,656.306 292.031,662.488Z" style="fill:rgb(122,186,210);"/>
        <path d="M674.61,693.146C686.268,697.605 686.086,697.967 690.463,698.717C699.031,700.185 689.485,702.173 676.706,708.882C668.45,713.217 668.157,710.034 660.356,704.962C657.675,703.92 654.995,702.879 652.315,701.837C652.881,701.394 652.267,700.737 654.269,700.308C664.961,698.013 664.666,697.428 674.61,693.146Z" style="fill:rgb(122,186,210);"/>
        <path d="M570.758,585.072C573.078,586.808 575.397,588.544 577.717,590.281C576.18,593.58 574.297,592.857 567.512,626.477C562.402,623.237 562.488,623.527 557.198,620.962C562.277,614.971 563.688,591.299 570.758,585.072Z" style="fill:rgb(122,186,210);"/>
        <path d="M496.718,602.573C496.836,602.097 499.758,590.305 500.233,597.565C502.574,633.422 455.761,647.747 455.202,638.527C454.895,633.456 478.68,642.867 496.718,602.573Z" style="fill:rgb(237,211,140);"/>
        <path d="M604.502,475.713C589.615,474.295 590.751,470.504 591.709,469.918C592.367,469.516 602.42,473.44 620.288,465.07C643.707,454.1 647.837,429.19 646.432,445.491C646.184,448.363 642.421,457.455 632.209,465.154C620.705,473.827 606.858,475.438 604.502,475.713Z" style="fill:rgb(237,211,140);"/>
        <path d="M326.499,680.465C324.38,680.347 302.72,679.138 301.9,670.509C301.748,668.91 328.277,682.115 355.227,667.03C355.96,666.619 364.717,658.785 362.162,665.396C357.284,678.019 329.587,680.22 326.499,680.465Z" style="fill:rgb(237,211,140);"/>
        <path d="M485.586,496.124C475.817,492.809 477.729,489.729 478.458,489.927C520.931,501.418 546.563,449.934 534.07,475.27C522.077,499.592 489.789,496.524 485.586,496.124Z" style="fill:rgb(237,211,140);"/>
        <path d="M401.501,735.511C398.208,735.353 365.024,733.755 363.944,718.558C363.462,711.78 371.769,733.017 409.457,729.056C415.701,728.4 431.926,720.652 420.383,730.354C416.818,733.351 403.051,735.292 401.501,735.511Z" style="fill:rgb(237,211,140);"/>
        <path d="M556.406,685.581C553.315,687.569 553.158,686.662 549.488,686.385C549.171,685.337 533.691,672.486 531.383,650.511C530.142,638.694 537.969,630.582 537.193,638.46C534.772,663.062 548.642,677.128 556.406,685.581Z" style="fill:rgb(237,211,140);"/>
        <path d="M338.505,688.3C348.036,695.312 348.968,693.083 359.758,697.614C357.59,701.977 357.943,701.892 356.452,706.478C351.849,706.121 325.004,694.634 320.51,689.107C328.313,689.542 328.171,689.084 338.505,688.3Z" style="fill:rgb(122,186,210);"/>
        <path d="M473.2,538.286C478.034,532.154 477.348,531.645 483.781,526.957C497.789,516.75 467.357,564.792 466.344,565.037C456.831,567.333 472.116,540.211 473.2,538.286Z" style="fill:rgb(122,186,210);"/>
        <path d="M725.654,430.51C723.367,445.987 673.438,449.574 676.603,439.496C677.615,436.277 692.855,447.856 723.755,427.961C725.75,426.677 725.273,428.3 725.654,430.51Z" style="fill:rgb(237,211,140);"/>
        <path d="M633.893,629.425C634.831,649.289 614.674,639.053 619.584,626.53C624.932,612.892 626.594,612.729 627.141,613.781C631.813,622.757 632.527,625.095 633.893,629.425Z" style="fill:rgb(81,141,179);"/>
        <path d="M531.198,550.323C520.013,560.735 512.131,544.118 528.879,530.874C535.133,525.928 536.044,527.002 536.004,527.627C535.247,539.35 535.11,539.26 531.198,550.323Z" style="fill:rgb(81,141,179);"/>
        <path d="M691.459,690.683C683.211,688.002 683.187,688.424 675.713,684.135C663.957,677.387 664.155,667.401 667.391,670.627C691.055,694.224 715.434,684.313 716.123,687.605C717.789,695.568 693.414,691.046 691.459,690.683Z" style="fill:rgb(237,211,140);"/>
        <path d="M705.78,350.291C705.107,350.331 705.173,351.817 704.5,351.858C704.41,351.863 703.479,350.111 701.357,351.19C697.286,353.259 694.175,357.912 693.7,358.622C687.983,367.174 706.775,376.434 708.483,377.276C707.165,377.261 705.848,377.247 704.53,377.232C666.056,370.123 697.516,342.305 705.78,350.291Z" style="fill:rgb(237,211,140);"/>
        <path d="M416.247,661.484C416.551,660.388 422.54,638.745 428.109,653.641C433.607,668.346 417.86,675.575 416.247,661.484Z" style="fill:rgb(81,141,179);"/>
        <path d="M644.01,414.205C639.351,416.382 638.983,420.682 620.613,413.237C605.587,407.147 605.757,396.571 609.484,399.524C617.432,405.823 616.995,406.349 626.452,409.62C639.195,414.028 640.544,410.984 644.01,414.205Z" style="fill:rgb(237,211,140);"/>
        <path d="M384.792,642.729C376.552,640.853 376.631,642.533 368.242,643.83C359.985,637.202 360.022,636.558 360.66,635.961C361.529,635.147 383.509,634.586 385.499,634.535C386.157,634.518 387.772,634.844 384.792,642.729Z" style="fill:rgb(122,186,210);"/>
        <path d="M614.41,739.629C613.681,739.013 607.983,734.2 606.885,730.386C606.796,730.078 604.562,722.319 608.346,726.661C620.81,740.967 627.572,737.171 629.303,739.688C629.978,740.67 629.628,748.178 614.41,739.629Z" style="fill:rgb(237,211,140);"/>
        <path d="M729.864,313.177C741.256,327.999 742.511,327.124 754.467,352.513C751.784,358.904 752.527,349.941 748.725,346.371C744.605,342.503 746.957,340.773 734.997,327.047C735.22,326.153 736.754,326.011 736.977,325.117C737.061,324.78 736.158,325.769 733.559,322.449C733.11,321.874 729.112,316.765 728.5,314.863C728.279,314.175 730.085,313.865 729.864,313.177Z" style="fill:rgb(219,200,139);"/>
        <path d="M663.516,509.457C659.144,506.535 657.355,498.274 669.541,493.666C673.637,492.117 672.95,510.351 663.516,509.457Z" style="fill:rgb(86,146,182);"/>
        <path d="M686.467,641.575C690.458,645.304 679.872,641.081 670.436,645.341C668.788,646.085 667.246,647.048 665.599,647.793C663.003,648.966 659.712,637.742 664.506,638.437L677.525,640.367C682.231,641.039 682.001,640.937 686.467,641.575Z" style="fill:rgb(81,141,179);"/>
        <path d="M599.809,714.487C599.041,718.711 599.172,718.546 597.894,722.752C585.654,721.426 585.603,721.581 584.698,721.104C576.667,716.876 589.369,714.583 599.809,714.487Z" style="fill:rgb(122,186,210);"/>
        <path d="M747.988,717.447C749.495,738.286 749.384,742.736 746.839,761.57C745.037,758.822 746.107,758.624 746.337,720.5C746.348,718.679 747.068,719.148 747.988,717.447Z" style="fill:rgb(228,211,151);"/>
        <path d="M183.86,788.022C200.803,799.381 200.683,799.335 204.814,802.022C204.388,802.237 205.035,803.662 202.742,803.064C202.226,802.929 198.205,801.88 196.707,800.245C194.893,798.265 181.86,789.737 182.023,789.5C182.468,788.852 183.415,788.67 183.86,788.022Z" style="fill:rgb(226,209,143);"/>
        <path d="M526.862,701.115C528.921,703.07 530.979,705.024 533.038,706.978C528.903,708.956 525.339,704.42 526.862,701.115Z" style="fill:rgb(231,210,143);"/>
        <path d="M343.482,644.687C346.628,643.091 346.888,643.293 349.41,645.769L343.482,644.687Z" style="fill:rgb(234,195,95);"/>
        <path d="M656.604,716.326C656.751,716.343 658.434,716.538 658.434,716.538C658.756,717.852 656.724,716.411 656.604,716.326Z" style="fill:rgb(224,190,101);"/>
        <path d="M878.762,117.337C879.201,118.124 879.641,118.91 880.08,119.697C879.315,118.475 879.383,118.589 878.762,117.337Z" style="fill:rgb(112,146,148);"/>
    </g>
    <g transform="matrix(-1.757812,0,0,1.757812,1790.990224,-88)">
        <path d="M831.31,832.333C833.691,830.778 834.151,822.7 885.429,833.895C914.379,840.215 944.69,852.743 941.341,855.354C934.748,860.495 885.659,889.872 827.51,894.233C810.784,895.487 810.093,896.846 804.319,892.939C807.159,891.176 870.657,886.258 912.271,857.236C920.398,851.569 867.623,838.161 849.478,835.651C840.179,834.365 840.155,835.471 831.31,832.333Z" style="fill:rgb(217,174,89);"/>
    </g>
</svg>
